<svg width="600" height="97" viewBox="0 0 600 97" fill="none" xmlns="http://www.w3.org/2000/svg">
<g clip-path="url(#clip0_583_18)">
<path d="M41.7357 77.9466L65.2731 22.0605H82.8231V94.9252H71.2533V33.2083L45.2487 95.3143H36.9264L11.1796 33.5977V94.9252H0V22.0605H18.3307L41.7357 77.9466Z" fill="black"/>
<path d="M146.176 83.1313C143.701 88.3159 136.557 96.3573 124.722 96.3573C108.726 96.3573 97.8047 84.2988 97.8047 67.702V30.8804H109.765V65.4988C109.765 77.5573 116.658 85.4666 127.58 85.4666C138.502 85.4666 146.176 77.3003 146.176 65.4988V30.8804H158.011V94.9325H146.176V83.1313Z" fill="black"/>
<path d="M244.341 94.9252H229.125C214.168 94.9252 206.634 87.7943 206.634 73.5328V41.5067H192.516V30.873H206.634V14.7241H218.469V30.873H244.341V41.5067H218.469V70.8084C218.469 80.1422 221.459 84.0345 231.733 84.0345H244.348V94.9252H244.341Z" fill="black"/>
<path d="M312.885 96.0928H303.393L273.094 30.8804H286.358L308.46 80.2745L330.435 30.8804H342.654L312.879 96.0928H312.885Z" fill="black"/>
<path d="M408.063 64.3312H354.624C355.272 76.2573 363.858 85.5987 376.467 85.5987C389.076 85.5987 394.539 78.7247 395.58 76.6539H407.28C406.242 82.2279 398.046 96.4894 376.467 96.4894C356.574 96.4894 342.657 81.7064 342.657 62.9064C342.657 44.1063 356.568 29.3235 375.288 29.3235C394.011 29.3235 408.054 43.3279 408.054 64.3312H408.063ZM355.404 54.4759H394.932C391.941 44.7527 385.047 39.436 375.297 39.436C364.899 39.436 357.873 45.1421 355.404 54.4759Z" fill="black"/>
<path d="M431.367 94.9253H419.532V30.8804H431.367V42.682C433.185 38.0113 438.651 30.3665 453.732 30.3665H460.671V42.1677H453.474C436.962 42.1677 431.373 47.3526 431.373 58.7648V94.9401L431.367 94.9253Z" fill="black"/>
<path d="M486.708 66.7913C474.36 65.3665 465.648 59.5283 465.648 47.7343C465.648 35.94 476.31 29.0664 492.042 29.0664C513.759 29.0664 520.779 40.214 522.855 46.6986H510.24C508.812 45.0096 504.003 39.1786 492.033 39.1786C482.283 39.1786 477.342 42.6818 477.342 47.3449C477.342 52.0084 480.597 54.7328 488.262 55.6433C493.329 56.2897 496.452 56.5539 502.044 57.2002C517.257 59.1465 523.755 65.6235 523.755 77.4251C523.755 88.1909 513.87 96.7463 495.672 96.7463C473.049 96.7463 465.117 82.8739 463.686 77.0429H476.304C476.952 79.1141 482.151 86.377 495.681 86.377C506.601 86.377 511.932 82.4848 511.932 77.4323C511.932 72.3798 509.202 69.3909 500.49 68.3555L486.708 66.7986V66.7913Z" fill="black"/>
<path d="M253.172 0H265.523V18.543H253.172V0ZM253.43 30.8583H265.265V94.9105H253.43V30.8583Z" fill="black"/>
<path d="M172.969 11.1846H184.804V94.9105H172.969V11.1846Z" fill="black"/>
<path d="M571.254 39.0467L599.991 23.8453L595.158 14.6509L568.845 25.1892C568.167 25.4609 567.417 25.4609 566.739 25.1892L540.426 14.6509L535.593 23.8453L564.33 39.0467L535.593 54.2484L540.426 63.4428L566.739 52.9043C567.417 52.6328 568.167 52.6328 568.845 52.9043L595.158 63.4428L599.991 54.2484L571.254 39.0467Z" fill="#23F7DD"/>
</g>
<defs>
<clipPath id="clip0_583_18">
<rect width="600" height="96.7391" fill="white"/>
</clipPath>
</defs>
</svg>
