<svg width="500" height="500" viewBox="0 0 500 500" fill="none" xmlns="http://www.w3.org/2000/svg">
<g clip-path="url(#clip0_1202_2)">
<path d="M121.462 110.104C125.56 104.251 132.47 101.029 139.588 101.652L218.742 108.577C225.86 109.199 232.105 113.572 235.125 120.048L268.704 192.06C271.724 198.536 271.06 206.131 266.961 211.984L221.387 277.071C217.289 282.924 210.379 286.146 203.261 285.523L124.107 278.598C116.989 277.975 110.744 273.602 107.724 267.127L74.1443 195.115C71.1245 188.639 71.789 181.044 75.8874 175.191L121.462 110.104Z" fill="black"/>
<path d="M278.706 223.593C282.804 217.74 289.714 214.518 296.832 215.14L375.986 222.065C383.104 222.688 389.349 227.061 392.369 233.537L425.949 305.549C428.968 312.025 428.304 319.62 424.206 325.473L378.631 390.56C374.533 396.413 367.623 399.635 360.505 399.012L281.351 392.087C274.233 391.464 267.988 387.091 264.968 380.615L231.388 308.603C228.369 302.128 229.033 294.533 233.132 288.68L278.706 223.593Z" fill="black"/>
<path d="M102.319 302.899C106.417 297.046 113.327 293.824 120.445 294.446L199.599 301.371C206.717 301.994 212.962 306.367 215.982 312.843L249.562 384.855C252.582 391.331 251.917 398.926 247.819 404.779L202.245 469.865C198.146 475.719 191.236 478.941 184.118 478.318L104.964 471.393C97.8463 470.77 91.6011 466.397 88.5814 459.921L55.0017 387.909C51.9819 381.434 52.6464 373.839 56.7448 367.985L102.319 302.899Z" fill="black"/>
<path d="M297.848 30.7983C301.947 24.9452 308.856 21.7232 315.975 22.3459L395.128 29.271C402.247 29.8938 408.492 34.2667 411.512 40.7425L445.091 112.754C448.111 119.23 447.446 126.825 443.348 132.678L397.774 197.765C393.675 203.618 386.766 206.84 379.648 206.217L300.494 199.292C293.376 198.67 287.13 194.297 284.111 187.821L250.531 115.809C247.511 109.333 248.176 101.738 252.274 95.8851L297.848 30.7983Z" fill="url(#paint0_linear_1202_2)"/>
</g>
<defs>
<linearGradient id="paint0_linear_1202_2" x1="304.5" y1="26" x2="389.5" y2="201" gradientUnits="userSpaceOnUse">
<stop stop-color="#81E6D9"/>
<stop offset="1" stop-color="#38B2AC"/>
</linearGradient>
<clipPath id="clip0_1202_2">
<rect width="500" height="500" fill="white"/>
</clipPath>
</defs>
</svg>
