<svg width="200" height="202" viewBox="0 0 200 202" fill="none" xmlns="http://www.w3.org/2000/svg">
<path fill-rule="evenodd" clip-rule="evenodd" d="M159.097 12.2209C154.738 18.7704 152.559 22.0451 149.24 23.8229C145.922 25.6008 141.988 25.6008 134.121 25.6008H65.8436C57.9441 25.6008 53.9943 25.6008 50.6664 23.8104C47.3386 22.0199 45.1621 18.7238 40.8091 12.1319L39.0129 9.41163C36.1109 5.01698 34.66 2.81966 32.4413 1.62602C30.2227 0.432373 27.5896 0.432373 22.3232 0.432373H15C10.3406 0.432373 8.01087 0.432373 6.17316 1.19358C3.72289 2.20852 1.77614 4.15525 0.761205 6.60554C0 8.44325 0 10.7729 0 15.4324V185.432C0 190.091 0 192.421 0.761205 194.259C1.77614 196.709 3.72289 198.657 6.17316 199.671C8.01087 200.432 10.3406 200.432 15 200.432H22.4345C27.7007 200.432 30.3339 200.432 32.5525 199.239C34.7713 198.045 36.2221 195.848 39.1241 191.453L40.8091 188.902C45.1621 182.309 47.3386 179.014 50.6664 177.223C53.9943 175.432 57.9441 175.432 65.8436 175.432H134.121C141.988 175.432 145.922 175.432 149.24 177.21C152.559 178.987 154.738 182.262 159.097 188.812L160.893 191.512C163.799 195.878 165.252 198.062 167.464 199.246C169.677 200.432 172.299 200.432 177.544 200.432H185C189.659 200.432 191.989 200.432 193.827 199.671C196.277 198.657 198.223 196.709 199.239 194.259C200 192.421 200 190.091 200 185.432V15.4324C200 10.7729 200 8.44325 199.239 6.60554C198.223 4.15525 196.277 2.20852 193.827 1.19358C191.989 0.432373 189.659 0.432373 185 0.432373H177.656C172.411 0.432373 169.789 0.432373 167.576 1.61761C165.364 2.80284 163.911 4.986 161.006 9.35234L159.097 12.2209ZM119.191 72.5674C129.418 76.1001 136.897 81.3958 135.428 91.2467C134.364 98.4578 130.377 101.949 125.085 103.173C132.352 106.967 136.05 112.785 132.527 122.872C128.156 135.4 117.77 136.457 103.958 133.836L100.606 147.307L92.5066 145.283L95.8148 131.992C93.7154 131.469 91.57 130.914 89.36 130.312L86.0402 143.666L77.9498 141.642L81.3018 128.145C80.5455 127.95 79.7845 127.751 79.018 127.551C77.8673 127.25 76.7045 126.946 75.5275 126.65L64.987 124.015L69.008 114.717C69.008 114.717 74.9761 116.309 74.8954 116.191C77.1884 116.76 78.2059 115.261 78.6071 114.261L83.9039 92.9656C84.1029 93.0135 84.2977 93.0624 84.4855 93.1097C84.5788 93.1331 84.6704 93.1562 84.7598 93.1785C84.437 93.0488 84.1439 92.9656 83.9179 92.9078L87.6966 77.7058C87.7957 75.9799 87.2029 73.8028 83.9225 72.9815C84.0493 72.896 78.0396 71.5147 78.0396 71.5147L80.1945 62.8392L91.3646 65.6362L91.3554 65.6778C93.0348 66.0965 94.7652 66.4945 96.5277 66.897L99.8473 53.5574L107.942 55.5817L104.69 68.6599C106.863 69.1572 109.05 69.6594 111.179 70.1915L114.409 57.1988L122.509 59.2231L119.191 72.5674ZM93.5712 120.949C100.18 122.7 114.625 126.525 116.921 117.271C119.274 107.809 105.266 104.657 98.43 103.118C97.6661 102.947 96.9918 102.795 96.44 102.657L91.9921 120.538C92.4454 120.651 92.9766 120.791 93.5712 120.949ZM99.8034 94.8204C105.314 96.2953 117.333 99.5119 119.426 91.1008C121.564 82.4978 109.883 79.9044 104.178 78.6378C103.536 78.4953 102.97 78.3695 102.507 78.254L98.4746 94.4717C98.8555 94.5669 99.3025 94.6865 99.8034 94.8204Z" fill="url(#paint0_linear_2027_16)"/>
<defs>
<linearGradient id="paint0_linear_2027_16" x1="-2.94118" y1="200.432" x2="114.706" y2="200.432" gradientUnits="userSpaceOnUse">
<stop stop-color="#FFB800"/>
<stop offset="1" stop-color="#E09728"/>
</linearGradient>
</defs>
</svg>
