<svg width="200" height="202" viewBox="0 0 200 202" fill="none" xmlns="http://www.w3.org/2000/svg">
<g clip-path="url(#clip0_2027_18)">
<path fill-rule="evenodd" clip-rule="evenodd" d="M159.689 12.2209C155.331 18.7704 153.152 22.0451 149.833 23.8229C146.515 25.6008 142.581 25.6008 134.714 25.6008H66.4363C58.5368 25.6008 54.5872 25.6008 51.2591 23.8104C47.9313 22.0199 45.7549 18.7238 41.402 12.1319L39.6056 9.41163C36.7036 5.01698 35.2527 2.81966 33.0341 1.62602C30.8156 0.432373 28.1824 0.432373 22.9159 0.432373H15.5928C10.9334 0.432373 8.60365 0.432373 6.76593 1.19358C4.31566 2.20852 2.36891 4.15525 1.35398 6.60554C0.592773 8.44325 0.592773 10.7729 0.592773 15.4324V185.432C0.592773 190.091 0.592773 192.421 1.35398 194.259C2.36891 196.709 4.31566 198.657 6.76593 199.671C8.60365 200.432 10.9334 200.432 15.5928 200.432H23.0272C28.2936 200.432 30.9266 200.432 33.1454 199.239C35.364 198.045 36.8149 195.848 39.7168 191.453L41.402 188.902C45.7549 182.309 47.9313 179.014 51.2591 177.223C54.5872 175.432 58.5368 175.432 66.4363 175.432H134.714C142.581 175.432 146.515 175.432 149.833 177.21C153.152 178.987 155.331 182.262 159.689 188.812L161.486 191.512C164.392 195.878 165.845 198.062 168.057 199.246C170.269 200.432 172.892 200.432 178.136 200.432H185.593C190.252 200.432 192.582 200.432 194.42 199.671C196.87 198.657 198.816 196.709 199.832 194.259C200.593 192.421 200.593 190.091 200.593 185.432V15.4324C200.593 10.7729 200.593 8.44325 199.832 6.60554C198.816 4.15525 196.87 2.20852 194.42 1.19358C192.582 0.432373 190.252 0.432373 185.593 0.432373H178.249C173.004 0.432373 170.381 0.432373 168.169 1.61761C165.957 2.80284 164.504 4.986 161.598 9.35234L159.689 12.2209ZM100.871 46.6792L134.299 101.107L134.297 101.108L100.871 120.496L67.4416 101.107L100.871 46.6792ZM100.871 126.707L134.317 107.329L100.871 153.554L100.87 153.552L67.4438 107.328L100.871 126.707Z" fill="url(#paint0_linear_2027_18)"/>
</g>
<defs>
<linearGradient id="paint0_linear_2027_18" x1="-2.34841" y1="200.432" x2="115.299" y2="200.432" gradientUnits="userSpaceOnUse">
<stop stop-color="#BDC6EB"/>
<stop offset="1" stop-color="#6579DC"/>
</linearGradient>
<clipPath id="clip0_2027_18">
<rect width="200" height="201.786" fill="white"/>
</clipPath>
</defs>
</svg>
