<svg width="200" height="101" viewBox="0 0 200 101" fill="none" xmlns="http://www.w3.org/2000/svg">
<path d="M26.3935 100.047L0.0205078 26.3623L73.4531 100.047H26.3935Z" fill="url(#paint0_linear_2027_15)"/>
<path d="M0 26.5483L73.4316 0.0927734L23.4831 50.1164L0 26.5483Z" fill="url(#paint1_linear_2027_15)"/>
<path d="M126.473 0.0931529L126.38 0L49.873 76.4789L73.356 100.047L173.439 0L126.473 0.0931529Z" fill="url(#paint2_linear_2027_15)"/>
<path d="M191.87 50.0235L173.536 0H173.442L149.959 23.4749L200 73.6843L191.87 50.0235Z" fill="url(#paint3_linear_2027_15)"/>
<path d="M199.867 73.6345L126.436 99.9967L176.384 50.0664L199.867 73.6345Z" fill="url(#paint4_linear_2027_15)"/>
<defs>
<linearGradient id="paint0_linear_2027_15" x1="-11.8267" y1="38.1914" x2="61.724" y2="111.768" gradientUnits="userSpaceOnUse">
<stop stop-color="#5F96FF"/>
<stop offset="0.583" stop-color="#4F54D9"/>
<stop offset="0.7344" stop-color="#4F4FD6"/>
<stop offset="0.9146" stop-color="#4E40CC"/>
<stop offset="1" stop-color="#4E37C5"/>
</linearGradient>
<linearGradient id="paint1_linear_2027_15" x1="11.6976" y1="38.3431" x2="61.663" y2="-11.6399" gradientUnits="userSpaceOnUse">
<stop stop-color="#3D56DE"/>
<stop offset="0.2691" stop-color="#4B79FF"/>
<stop offset="1" stop-color="#90ECFF"/>
</linearGradient>
<linearGradient id="paint2_linear_2027_15" x1="61.6059" y1="88.2895" x2="161.629" y2="-11.7699" gradientUnits="userSpaceOnUse">
<stop stop-color="#571EAB"/>
<stop offset="0.00987452" stop-color="#5A20AF"/>
<stop offset="0.0822791" stop-color="#6A2FCB"/>
<stop offset="0.1609" stop-color="#783AE0"/>
<stop offset="0.2477" stop-color="#8142EF"/>
<stop offset="0.349" stop-color="#8647F8"/>
<stop offset="0.4998" stop-color="#8848FB"/>
<stop offset="1" stop-color="#A97FFB"/>
</linearGradient>
<linearGradient id="paint3_linear_2027_15" x1="161.672" y1="11.7686" x2="211.775" y2="61.8896" gradientUnits="userSpaceOnUse">
<stop stop-color="#702BFF"/>
<stop offset="0.43" stop-color="#A33AFF"/>
<stop offset="0.6547" stop-color="#B33DFF"/>
<stop offset="1" stop-color="#D343FF"/>
</linearGradient>
<linearGradient id="paint4_linear_2027_15" x1="138.158" y1="111.786" x2="188.123" y2="61.8033" gradientUnits="userSpaceOnUse">
<stop stop-color="#FFA7FF"/>
<stop offset="0.2652" stop-color="#F46BFF"/>
<stop offset="0.4767" stop-color="#ED41FF"/>
<stop offset="0.585" stop-color="#EA31FF"/>
<stop offset="0.6741" stop-color="#E42DFA"/>
<stop offset="0.7951" stop-color="#D320EB"/>
<stop offset="0.9339" stop-color="#B60CD3"/>
<stop offset="1" stop-color="#A600C5"/>
</linearGradient>
</defs>
</svg>
