<svg width="200" height="202" viewBox="0 0 200 202" fill="none" xmlns="http://www.w3.org/2000/svg">
<g clip-path="url(#clip0_2027_20)">
<path fill-rule="evenodd" clip-rule="evenodd" d="M160.289 12.2209C155.931 18.7704 153.751 22.0451 150.433 23.8229C147.114 25.6008 143.181 25.6008 135.314 25.6008H67.036C59.1366 25.6008 55.1867 25.6008 51.8589 23.8104C48.5308 22.0199 46.3544 18.7238 42.0015 12.1319L40.2053 9.41163C37.3033 5.01698 35.8523 2.81966 33.6337 1.62602C31.4151 0.432373 28.7819 0.432373 23.5157 0.432373H16.1924C11.533 0.432373 9.20326 0.432373 7.36555 1.19358C4.91526 2.20852 2.96853 4.15525 1.95358 6.60554C1.19238 8.44325 1.19238 10.7729 1.19238 15.4324V185.432C1.19238 190.091 1.19238 192.421 1.95358 194.259C2.96853 196.709 4.91526 198.657 7.36555 199.671C9.20326 200.432 11.533 200.432 16.1924 200.432H23.6269C28.8932 200.432 31.5264 200.432 33.7449 199.239C35.9635 198.045 37.4146 195.848 40.3165 191.453L42.0015 188.902C46.3544 182.309 48.5308 179.014 51.8589 177.223C55.1867 175.432 59.1366 175.432 67.036 175.432H135.314C143.181 175.432 147.114 175.432 150.433 177.21C153.751 178.987 155.931 182.262 160.289 188.812L162.086 191.512C164.991 195.878 166.444 198.062 168.657 199.246C170.869 200.432 173.491 200.432 178.735 200.432H186.192C190.851 200.432 193.182 200.432 195.019 199.671C197.469 198.657 199.416 196.709 200.432 194.259C201.192 192.421 201.192 190.091 201.192 185.432V15.4324C201.192 10.7729 201.192 8.44325 200.432 6.60554C199.416 4.15525 197.469 2.20852 195.019 1.19358C193.182 0.432373 190.851 0.432373 186.192 0.432373H178.848C173.604 0.432373 170.981 0.432373 168.769 1.61761C166.556 2.80284 165.104 4.986 162.198 9.35234L160.289 12.2209ZM75.061 69.939C75.5455 69.4587 76.1912 69.1824 76.8499 69.1824H138.699C139.829 69.1824 140.394 70.5706 139.593 71.3865L127.377 83.8311C126.902 84.3154 126.257 84.5876 125.585 84.5878H63.7364C63.4855 84.5883 63.2401 84.5128 63.0316 84.3708C62.8228 84.229 62.6603 84.027 62.5644 83.791C62.4687 83.5547 62.4439 83.2949 62.4932 83.0444C62.5426 82.7938 62.6639 82.5638 62.8419 82.3836L75.0578 69.9358L75.061 69.939ZM75.061 116.405C75.5355 115.922 76.1789 115.65 76.8499 115.649H138.699C139.829 115.649 140.394 117.04 139.593 117.853L127.377 130.301C126.902 130.785 126.257 131.057 125.585 131.057H63.7364C63.4855 131.058 63.2401 130.982 63.0316 130.84C62.8228 130.698 62.6603 130.497 62.5644 130.261C62.4687 130.024 62.4439 129.765 62.4932 129.514C62.5426 129.263 62.6639 129.033 62.8419 128.853L75.0578 116.405H75.061ZM125.585 92.2645C126.256 92.2656 126.899 92.5376 127.374 93.0212L139.593 105.469C140.394 106.282 139.829 107.673 138.699 107.673H76.8499C76.1687 107.673 75.526 107.394 75.0578 106.917L62.8419 94.4687C62.6639 94.2885 62.5426 94.0585 62.4932 93.8079C62.4439 93.5574 62.4687 93.2976 62.5644 93.0613C62.6603 92.8253 62.8228 92.6235 63.0316 92.4815C63.2401 92.3397 63.4855 92.2642 63.7364 92.2645H125.585Z" fill="url(#paint0_linear_2027_20)"/>
</g>
<defs>
<linearGradient id="paint0_linear_2027_20" x1="-1.7488" y1="200.432" x2="227.978" y2="54.0038" gradientUnits="userSpaceOnUse">
<stop stop-color="#9348F3"/>
<stop offset="1" stop-color="#75EBA1"/>
</linearGradient>
<clipPath id="clip0_2027_20">
<rect width="200" height="201.786" fill="white"/>
</clipPath>
</defs>
</svg>
