<svg width="200" height="179" viewBox="0 0 200 179" fill="none" xmlns="http://www.w3.org/2000/svg">
<path d="M45.5463 3.90349C47.4981 1.5614 50.2305 0 53.3533 0H147.037C149.769 0 152.502 1.5614 154.454 3.90349L198.173 63.2365C200.905 66.7497 200.515 71.8242 197.392 75.3373L106.831 175.267C105.27 177.218 102.537 178.389 100.195 178.389C97.4627 178.389 94.7303 177.218 93.1689 175.267L2.60797 75.3373C-0.514821 71.8242 -0.90517 66.7497 1.82727 63.2365L45.5463 3.90349ZM60.7699 19.5174C59.2085 20.6885 59.2085 22.2499 59.9892 23.8113L82.2391 60.8944L24.8579 65.5786C23.2965 65.969 22.1254 67.14 22.1254 68.7014C22.1254 70.6531 23.2965 71.8242 24.8579 71.8242L99.8048 78.0698H100.195L175.142 71.8242C176.704 71.8242 177.875 70.6531 177.875 68.7014C177.875 67.14 176.704 65.969 175.142 65.5786L117.761 60.8944L140.011 23.8113C141.182 22.2499 140.791 20.6885 139.23 19.5174C138.059 18.7367 136.107 18.7367 135.327 19.9078L100.195 58.162L64.6734 19.9078C63.8927 18.7367 61.941 18.7367 60.7699 19.5174Z" fill="#FDE047"/>
</svg>
